<svg height="1582" width="720" xmlns="http://www.w3.org/2000/svg">
<rect height="1582" fill="#555" width="720"></rect>
<text fill="#7f7" font-family="Courier New" font-size="12" xml:space="preserve">
<tspan x="10" y="26">└─┬ cssnano@3.10.0 </tspan>
<tspan x="10" y="42">  ├─┬ autoprefixer@6.7.7 </tspan>
<tspan x="10" y="58">  │ ├─┬ browserslist@1.7.7 </tspan>
<tspan x="10" y="74">  │ │ └── electron-to-chromium@1.3.2 </tspan>
<tspan x="10" y="90">  │ ├── caniuse-db@1.0.30000649 </tspan>
<tspan x="10" y="106">  │ ├── normalize-range@0.1.2 </tspan>
<tspan x="10" y="122">  │ └── num2fraction@1.2.2 </tspan>
<tspan x="10" y="138">  ├── decamelize@1.2.0 </tspan>
<tspan x="10" y="154">  ├── defined@1.0.0 </tspan>
<tspan x="10" y="170">  ├─┬ has@1.0.1 </tspan>
<tspan x="10" y="186">  │ └── function-bind@1.1.0 </tspan>
<tspan x="10" y="202">  ├── object-assign@4.1.1 </tspan>
<tspan x="10" y="218">  ├─┬ postcss@5.2.16 </tspan>
<tspan x="10" y="234">  │ ├─┬ chalk@1.1.3 </tspan>
<tspan x="10" y="250">  │ │ ├── ansi-styles@2.2.1 </tspan>
<tspan x="10" y="266">  │ │ ├── escape-string-regexp@1.0.5 </tspan>
<tspan x="10" y="282">  │ │ ├─┬ has-ansi@2.0.0 </tspan>
<tspan x="10" y="298">  │ │ │ └── ansi-regex@2.1.1 </tspan>
<tspan x="10" y="314">  │ │ ├── strip-ansi@3.0.1 </tspan>
<tspan x="10" y="330">  │ │ └── supports-color@2.0.0 </tspan>
<tspan x="10" y="346">  │ ├── js-base64@2.1.9 </tspan>
<tspan x="10" y="362">  │ ├── source-map@0.5.6 </tspan>
<tspan x="10" y="378">  │ └─┬ supports-color@3.2.3 </tspan>
<tspan x="10" y="394">  │   └── has-flag@1.0.0 </tspan>
<tspan x="10" y="410">  ├─┬ postcss-calc@5.3.1 </tspan>
<tspan x="10" y="426">  │ ├── postcss-message-helpers@2.0.0 </tspan>
<tspan x="10" y="442">  │ └─┬ reduce-css-calc@1.3.0 </tspan>
<tspan x="10" y="458">  │   ├── balanced-match@0.4.2 </tspan>
<tspan x="10" y="474">  │   ├── math-expression-evaluator@1.2.16 </tspan>
<tspan x="10" y="490">  │   └── reduce-function-call@1.0.2 </tspan>
<tspan x="10" y="506">  ├─┬ postcss-colormin@2.2.2 </tspan>
<tspan x="10" y="522">  │ └─┬ colormin@1.1.2 </tspan>
<tspan x="10" y="538">  │   ├─┬ color@0.11.4 </tspan>
<tspan x="10" y="554">  │   │ ├── clone@1.0.2 </tspan>
<tspan x="10" y="570">  │   │ ├─┬ color-convert@1.9.0 </tspan>
<tspan x="10" y="586">  │   │ │ └── color-name@1.1.2 </tspan>
<tspan x="10" y="602">  │   │ └── color-string@0.3.0 </tspan>
<tspan x="10" y="618">  │   └── css-color-names@0.0.4 </tspan>
<tspan x="10" y="634">  ├── postcss-convert-values@2.6.1 </tspan>
<tspan x="10" y="650">  ├── postcss-discard-comments@2.0.4 </tspan>
<tspan x="10" y="666">  ├── postcss-discard-duplicates@2.1.0 </tspan>
<tspan x="10" y="682">  ├── postcss-discard-empty@2.1.0 </tspan>
<tspan x="10" y="698">  ├── postcss-discard-overridden@0.1.1 </tspan>
<tspan x="10" y="714">  ├─┬ postcss-discard-unused@2.2.3 </tspan>
<tspan x="10" y="730">  │ └── uniqs@2.0.0 </tspan>
<tspan x="10" y="746">  ├─┬ postcss-filter-plugins@2.0.2 </tspan>
<tspan x="10" y="762">  │ └─┬ uniqid@4.1.1 </tspan>
<tspan x="10" y="778">  │   └── macaddress@0.2.8 </tspan>
<tspan x="10" y="794">  ├── postcss-merge-idents@2.1.7 </tspan>
<tspan x="10" y="810">  ├── postcss-merge-longhand@2.0.2 </tspan>
<tspan x="10" y="826">  ├─┬ postcss-merge-rules@2.1.2 </tspan>
<tspan x="10" y="842">  │ ├─┬ caniuse-api@1.5.3 </tspan>
<tspan x="10" y="858">  │ │ ├── lodash.memoize@4.1.2 </tspan>
<tspan x="10" y="874">  │ │ └── lodash.uniq@4.5.0 </tspan>
<tspan x="10" y="890">  │ ├─┬ postcss-selector-parser@2.2.3 </tspan>
<tspan x="10" y="906">  │ │ ├── flatten@1.0.2 </tspan>
<tspan x="10" y="922">  │ │ ├── indexes-of@1.0.1 </tspan>
<tspan x="10" y="938">  │ │ └── uniq@1.0.1 </tspan>
<tspan x="10" y="954">  │ └── vendors@1.0.1 </tspan>
<tspan x="10" y="970">  ├── postcss-minify-font-values@1.0.5 </tspan>
<tspan x="10" y="986">  ├── postcss-minify-gradients@1.0.5 </tspan>
<tspan x="10" y="1002">  ├─┬ postcss-minify-params@1.2.2 </tspan>
<tspan x="10" y="1018">  │ └── alphanum-sort@1.0.2 </tspan>
<tspan x="10" y="1034">  ├── postcss-minify-selectors@2.1.1 </tspan>
<tspan x="10" y="1050">  ├── postcss-normalize-charset@1.1.1 </tspan>
<tspan x="10" y="1066">  ├─┬ postcss-normalize-url@3.0.8 </tspan>
<tspan x="10" y="1082">  │ ├── is-absolute-url@2.1.0 </tspan>
<tspan x="10" y="1098">  │ └─┬ normalize-url@1.9.1 </tspan>
<tspan x="10" y="1114">  │   ├── prepend-http@1.0.4 </tspan>
<tspan x="10" y="1130">  │   ├─┬ query-string@4.3.2 </tspan>
<tspan x="10" y="1146">  │   │ └── strict-uri-encode@1.1.0 </tspan>
<tspan x="10" y="1162">  │   └─┬ sort-keys@1.1.2 </tspan>
<tspan x="10" y="1178">  │     └── is-plain-obj@1.1.0 </tspan>
<tspan x="10" y="1194">  ├── postcss-ordered-values@2.2.3 </tspan>
<tspan x="10" y="1210">  ├── postcss-reduce-idents@2.4.0 </tspan>
<tspan x="10" y="1226">  ├── postcss-reduce-initial@1.0.1 </tspan>
<tspan x="10" y="1242">  ├── postcss-reduce-transforms@1.0.4 </tspan>
<tspan x="10" y="1258">  ├─┬ postcss-svgo@2.1.6 </tspan>
<tspan x="10" y="1274">  │ ├─┬ is-svg@2.1.0 </tspan>
<tspan x="10" y="1290">  │ │ └── html-comment-regex@1.1.1 </tspan>
<tspan x="10" y="1306">  │ └─┬ svgo@0.7.2 </tspan>
<tspan x="10" y="1322">  │   ├─┬ coa@1.0.1 </tspan>
<tspan x="10" y="1338">  │   │ └── q@1.5.0 </tspan>
<tspan x="10" y="1354">  │   ├── colors@1.1.2 </tspan>
<tspan x="10" y="1370">  │   ├─┬ csso@2.3.2 </tspan>
<tspan x="10" y="1386">  │   │ └── clap@1.1.3 </tspan>
<tspan x="10" y="1402">  │   ├─┬ js-yaml@3.7.0 </tspan>
<tspan x="10" y="1418">  │   │ ├─┬ argparse@1.0.9 </tspan>
<tspan x="10" y="1434">  │   │ │ └── sprintf-js@1.0.3 </tspan>
<tspan x="10" y="1450">  │   │ └── esprima@2.7.3 </tspan>
<tspan x="10" y="1466">  │   ├─┬ mkdirp@0.5.1 </tspan>
<tspan x="10" y="1482">  │   │ └── minimist@0.0.8 </tspan>
<tspan x="10" y="1498">  │   ├── sax@1.2.2 </tspan>
<tspan x="10" y="1514">  │   └── whet.extend@0.9.9 </tspan>
<tspan x="10" y="1530">  ├── postcss-unique-selectors@2.0.2 </tspan>
<tspan x="10" y="1546">  ├── postcss-value-parser@3.3.0 </tspan>
<tspan x="10" y="1562">  └── postcss-zindex@2.2.0</tspan>
</text>
</svg>
